<svg width="786" height="216" viewBox="0 0 786 216" fill="none" xmlns="http://www.w3.org/2000/svg">
<rect x="51" y="21" width="113" height="8" rx="4" fill="#03A9F4"/>
<rect x="51" y="187" width="113" height="8" rx="4" fill="#03A9F4"/>
<path fill-rule="evenodd" clip-rule="evenodd" d="M68.5004 17.4185C70.0331 16.4771 71 14.8239 71 13.0252C71 10.2499 68.7501 8 65.9748 8H42C29.8497 8 20 17.8497 20 30V186C20 198.15 29.8497 208 42 208H66.2448C68.871 208 71 205.871 71 203.245C71 201.541 70.0835 199.975 68.6298 199.087C39.6725 181.397 20.4397 149.402 20.6915 112.998L20.7675 101.998C21.0152 66.1749 40.0693 34.8818 68.5004 17.4185Z" fill="#03A9F4"/>
<path fill-rule="evenodd" clip-rule="evenodd" d="M143.5 198.582C141.967 199.523 141 201.176 141 202.975C141 205.75 143.25 208 146.025 208H170C182.15 208 192 198.15 192 186V30C192 17.8497 182.15 8 170 8H145.755C143.129 8 141 10.129 141 12.7552C141 14.4588 141.916 16.0248 143.37 16.9129C172.327 34.6031 191.56 66.5983 191.309 103.002L191.232 114.002C190.985 149.825 171.931 181.118 143.5 198.582Z" fill="#03A9F4"/>
<path d="M90.7617 163H69.7412V57.9707H90.7617V110.485L129.873 57.9707H153.75L120.571 102.282L153.75 163H129.873L106.802 120.52L90.7617 141.979V163Z" fill="#1E1E1E"/>
<path fill-rule="evenodd" clip-rule="evenodd" d="M40 0C17.9086 0 0 17.9086 0 40V176C0 198.091 17.9086 216 40 216H172C194.091 216 212 198.091 212 176V40C212 17.9086 194.091 0 172 0H40ZM53.5156 20.9031C35.2902 20.9031 20.5156 35.6778 20.5156 53.9032V162.097C20.5156 180.322 35.2902 195.097 53.5156 195.097H158.483C176.709 195.097 191.483 180.322 191.483 162.097V53.9031C191.483 35.6777 176.709 20.9031 158.483 20.9031H53.5156Z" fill="#1E1E1E"/>
<path d="M243.6 137H227.4V74H243.6V98.75H251.7L265.74 74H282.84L265.2 105.05L282.75 137H265.65L251.7 111.35H243.6V137ZM309.37 124.85C312.55 124.85 316.15 124.25 320.17 123.05V89.3H335.92V137H321.97L321.07 132.5C318.25 134.36 315.34 135.74 312.34 136.64C309.4 137.48 306.91 137.9 304.87 137.9H300.82C296.74 137.9 293.47 136.67 291.01 134.21C288.55 131.75 287.32 128.48 287.32 124.4V89.3H303.07V121.7C303.07 122.6 303.37 123.35 303.97 123.95C304.57 124.55 305.32 124.85 306.22 124.85H309.37ZM376.839 103.7C376.839 102.8 376.539 102.05 375.939 101.45C375.339 100.85 374.589 100.55 373.689 100.55H371.439C368.919 100.55 366.729 100.67 364.869 100.91C363.069 101.15 361.659 101.33 360.639 101.45V124.85H373.239C375.639 124.85 376.839 123.65 376.839 121.25V103.7ZM360.639 90.2C366.459 89 371.559 88.4 375.939 88.4H379.089C383.169 88.4 386.439 89.63 388.899 92.09C391.359 94.55 392.589 97.82 392.589 101.9V122.6C392.589 127.1 391.299 130.64 388.719 133.22C386.199 135.74 382.689 137 378.189 137H344.889V74H360.639V90.2ZM419.149 99.65C416.749 99.65 415.549 100.85 415.549 103.25V108.2H430.849V103.25C430.849 100.85 429.649 99.65 427.249 99.65H419.149ZM444.799 136.1C433.219 137.3 422.719 137.9 413.299 137.9C409.219 137.9 405.949 136.67 403.489 134.21C401.029 131.75 399.799 128.48 399.799 124.4V102.8C399.799 98.3 401.059 94.79 403.579 92.27C406.159 89.69 409.699 88.4 414.199 88.4H432.199C436.699 88.4 440.209 89.69 442.729 92.27C445.309 94.79 446.599 98.3 446.599 102.8V119.45H415.549V123.05C415.549 123.95 415.849 124.7 416.449 125.3C417.049 125.9 417.799 126.2 418.699 126.2C424.639 126.2 433.339 125.75 444.799 124.85V136.1ZM482.114 102.35C478.334 102.35 474.434 103.25 470.414 105.05V137H454.664V89.3H468.614L469.514 95.15C474.674 90.65 480.074 88.4 485.714 88.4H489.764V102.35H482.114ZM511.357 125.3C514.537 125.3 518.137 124.7 522.157 123.5V118.1H509.107C508.207 118.1 507.457 118.4 506.857 119C506.257 119.6 505.957 120.35 505.957 121.25V122.15C505.957 123.05 506.257 123.8 506.857 124.4C507.457 125 508.207 125.3 509.107 125.3H511.357ZM494.707 90.2C505.687 89 515.587 88.4 524.407 88.4C528.487 88.4 531.757 89.63 534.217 92.09C536.677 94.55 537.907 97.82 537.907 101.9V137H523.957L523.057 132.5C520.237 134.36 517.327 135.74 514.327 136.64C511.387 137.48 508.897 137.9 506.857 137.9H503.707C499.627 137.9 496.357 136.67 493.897 134.21C491.437 131.75 490.207 128.48 490.207 124.4V120.35C490.207 116.27 491.437 113 493.897 110.54C496.357 108.08 499.627 106.85 503.707 106.85H522.157V103.25C522.157 102.35 521.857 101.6 521.257 101C520.657 100.4 519.907 100.1 519.007 100.1C515.107 100.1 510.787 100.28 506.047 100.64C501.367 101 497.587 101.27 494.707 101.45V90.2ZM590.065 124.4H622.915V137H573.865V74H590.065V124.4ZM647.236 125.3C650.416 125.3 654.016 124.7 658.036 123.5V118.1H644.986C644.086 118.1 643.336 118.4 642.736 119C642.136 119.6 641.836 120.35 641.836 121.25V122.15C641.836 123.05 642.136 123.8 642.736 124.4C643.336 125 644.086 125.3 644.986 125.3H647.236ZM630.586 90.2C641.566 89 651.466 88.4 660.286 88.4C664.366 88.4 667.636 89.63 670.096 92.09C672.556 94.55 673.786 97.82 673.786 101.9V137H659.836L658.936 132.5C656.116 134.36 653.206 135.74 650.206 136.64C647.266 137.48 644.776 137.9 642.736 137.9H639.586C635.506 137.9 632.236 136.67 629.776 134.21C627.316 131.75 626.086 128.48 626.086 124.4V120.35C626.086 116.27 627.316 113 629.776 110.54C632.236 108.08 635.506 106.85 639.586 106.85H658.036V103.25C658.036 102.35 657.736 101.6 657.136 101C656.536 100.4 655.786 100.1 654.886 100.1C650.986 100.1 646.666 100.28 641.926 100.64C637.246 101 633.466 101.27 630.586 101.45V90.2ZM713.811 103.7C713.811 102.8 713.511 102.05 712.911 101.45C712.311 100.85 711.561 100.55 710.661 100.55H708.411C705.891 100.55 703.701 100.67 701.841 100.91C700.041 101.15 698.631 101.33 697.611 101.45V124.85H710.211C712.611 124.85 713.811 123.65 713.811 121.25V103.7ZM697.611 90.2C703.431 89 708.531 88.4 712.911 88.4H716.061C720.141 88.4 723.411 89.63 725.871 92.09C728.331 94.55 729.561 97.82 729.561 101.9V122.6C729.561 127.1 728.271 130.64 725.691 133.22C723.171 135.74 719.661 137 715.161 137H681.861V74H697.611V90.2ZM735.872 124.4C748.052 125.3 757.652 125.75 764.672 125.75C765.572 125.75 766.322 125.45 766.922 124.85C767.522 124.25 767.822 123.5 767.822 122.6V119.45H748.472C744.392 119.45 741.122 118.22 738.662 115.76C736.202 113.3 734.972 110.03 734.972 105.95V102.8C734.972 98.72 736.202 95.45 738.662 92.99C741.122 90.53 744.392 89.3 748.472 89.3H779.072V101H753.872C752.972 101 752.222 101.3 751.622 101.9C751.022 102.5 750.722 103.25 750.722 104.15C750.722 105.05 751.022 105.8 751.622 106.4C752.222 107 752.972 107.3 753.872 107.3H770.072C774.152 107.3 777.422 108.53 779.882 110.99C782.342 113.45 783.572 116.72 783.572 120.8V124.4C783.572 128.48 782.342 131.75 779.882 134.21C777.422 136.67 774.152 137.9 770.072 137.9C759.452 137.9 748.052 137.3 735.872 136.1V124.4Z" fill="#1E1E1E"/>
</svg>
